<svg width="310" height="400" xmlns="http://www.w3.org/2000/svg">
 <g>
  <title>Layer 1</title>
  <rect fill="#b2b2b2" x="135" y="300" width="42" height="16" id="svg_3" stroke="#b2b2b2"/>
  <rect fill="#4c4c4c" x="98" y="4" width="115" height="296.99999" id="svg_2" rx="10" stroke="#333333"/>
  <rect fill="#a17acc" x="6" y="43" width="300" height="218.00001" id="svg_1" rx="25" stroke="#946dbf"/>
  <rect fill="#4c4c4c" stroke="#333333" x="152" y="337" width="10" height="0" id="svg_4"/>
  <rect fill="#e5e5e5" x="135" y="317" width="42" height="77" id="svg_5" stroke="#e5e5e5"/>
  <rect fill="#e5e5e5" x="28" y="153" width="117" height="75" id="svg_11" stroke="#946dbf" rx="10"/>
  <rect fill="#e5e5e5" x="165" y="79" width="117" height="43" id="svg_7" stroke="#946dbf" rx="10"/>
  <text fill="#000000" x="161.51985" y="109" id="svg_8" stroke-width="0" font-size="24" font-family="Noto Sans JP" text-anchor="start" xml:space="preserve" font-weight="bold" stroke="#946dbf" transform="matrix(0.924047 0 0 1 25.7481 -1)">Computer</text>
  <rect fill="#e5e5e5" x="28" y="79" width="117" height="43" id="svg_9" stroke="#946dbf" rx="10"/>
  <rect fill="#e5e5e5" x="165" y="153" width="117" height="75" id="svg_13" stroke="#946dbf" rx="10"/>
  <text fill="#000000" x="40.31389" y="109" id="svg_14" stroke-width="0" font-size="24" font-family="Noto Sans JP" text-anchor="start" xml:space="preserve" font-weight="bold" stroke="#946dbf" transform="matrix(0.924047 0 0 1 25.7481 -1)">User</text>
  <text fill="#000000" stroke="#946dbf" x="75" y="205" id="userScore" stroke-width="0" font-size="45" font-family="Noto Sans JP" text-anchor="start" xml:space="preserve" font-weight="bold">0</text>
  <text fill="#000000" stroke="#946dbf" x="214" y="205" id="computerScore" stroke-width="0" font-size="45" font-family="Noto Sans JP" text-anchor="start" xml:space="preserve" font-weight="bold">0</text>
 </g>

</svg>